HIERARCHY
ROOT Hips
{
	OFFSET	0.00	0.00	0.00
	CHANNELS 6 Xposition Yposition Zposition Zrotation Xrotation Yrotation
	JOINT LeftUpLeg
	{
		OFFSET	 0.126116	-0.014019	-0.065224
		CHANNELS 3 Zrotation Xrotation Yrotation
		JOINT LeftLeg
		{
			OFFSET	 0.000000	 0.000000	 0.569914
			CHANNELS 3 Zrotation Xrotation Yrotation
			JOINT LeftFoot
			{
				OFFSET	 0.000000	 0.000000	 0.544423
				CHANNELS 3 Zrotation Xrotation Yrotation
				JOINT LeftToeBase
				{
					OFFSET	 0.000000	 0.000000	 0.207117
					CHANNELS 3 Zrotation Xrotation Yrotation
					End Site
					{
						OFFSET	 0.000000	 0.000000	 0.207117
					}
				}
			}
		}
	}
	JOINT RightUpLeg
	{
		OFFSET	-0.124023	-0.008373	-0.065224
		CHANNELS 3 Zrotation Xrotation Yrotation
		JOINT RightLeg
		{
			OFFSET	 0.000000	 0.000000	 0.570047
			CHANNELS 3 Zrotation Xrotation Yrotation
			JOINT RightFoot
			{
				OFFSET	 0.000000	 0.000000	 0.544354
				CHANNELS 3 Zrotation Xrotation Yrotation
				JOINT RightToeBase
				{
					OFFSET	 0.000000	 0.000000	 0.207540
					CHANNELS 3 Zrotation Xrotation Yrotation
					End Site
					{
						OFFSET	 0.000000	 0.000000	 0.207540
					}
				}
			}
		}
	}
	JOINT Spine
	{
		OFFSET	 0.000184	-0.007763	 0.117403
		CHANNELS 3 Zrotation Xrotation Yrotation
		JOINT Spine1
		{
			OFFSET	 0.000000	 0.000000	 0.137269
			CHANNELS 3 Zrotation Xrotation Yrotation
			JOINT Spine2
			{
				OFFSET	 0.000000	 0.000000	 0.156879
				CHANNELS 3 Zrotation Xrotation Yrotation
				JOINT LeftShoulder
				{
					OFFSET	 0.080501	-0.002496	 0.160144
					CHANNELS 3 Zrotation Xrotation Yrotation
					JOINT LeftArm
					{
						OFFSET	 0.000000	 0.000000	 0.164363
						CHANNELS 3 Zrotation Xrotation Yrotation
						JOINT LeftForeArm
						{
							OFFSET	 0.000000	 0.000000	 0.364576
							CHANNELS 3 Zrotation Xrotation Yrotation
							JOINT LeftHand
							{
								OFFSET	 0.000000	 0.000000	 0.360812
								CHANNELS 3 Zrotation Xrotation Yrotation
								JOINT LeftHandIndex1
								{
									OFFSET	 0.000000	 0.000000	 0.086006
									CHANNELS 3 Zrotation Xrotation Yrotation
									JOINT LeftHandIndex2
									{
										OFFSET	 0.000000	 0.000000	 0.047237
										CHANNELS 3 Zrotation Xrotation Yrotation
										JOINT LeftHandIndex3
										{
											OFFSET	-0.004284	-0.000551	 0.038165
											CHANNELS 3 Zrotation Xrotation Yrotation
											End Site
											{
												OFFSET	-0.004284	-0.000551	 0.038165
											}
										}
									}
								}
							}
						}
					}
				}
				JOINT Neck
				{
					OFFSET	 0.000000	 0.000000	 0.176489
					CHANNELS 3 Zrotation Xrotation Yrotation
					JOINT Head
					{
						OFFSET	 0.000000	-0.001747	 0.077940
						CHANNELS 3 Zrotation Xrotation Yrotation
						End Site
						{
							OFFSET	 0.000000	-0.001747	 0.077940
						}
					}
				}
				JOINT RightShoulder
				{
					OFFSET	-0.080363	 0.000306	 0.159706
					CHANNELS 3 Zrotation Xrotation Yrotation
					JOINT RightArm
					{
						OFFSET	 0.000000	 0.000000	 0.164196
						CHANNELS 3 Zrotation Xrotation Yrotation
						JOINT RightForeArm
						{
							OFFSET	 0.000000	 0.000000	 0.365611
							CHANNELS 3 Zrotation Xrotation Yrotation
							JOINT RightHand
							{
								OFFSET	 0.000000	 0.000000	 0.360648
								CHANNELS 3 Zrotation Xrotation Yrotation
								JOINT RightHandIndex1
								{
									OFFSET	 0.000000	 0.000000	 0.069977
									CHANNELS 3 Zrotation Xrotation Yrotation
									JOINT RightHandIndex2
									{
										OFFSET	 0.000000	 0.000000	 0.052305
										CHANNELS 3 Zrotation Xrotation Yrotation
										JOINT RightHandIndex3
										{
											OFFSET	 0.009002	-0.000782	 0.042196
											CHANNELS 3 Zrotation Xrotation Yrotation
											End Site
											{
												OFFSET	 0.009002	-0.000782	 0.042196
											}
										}
									}
								}
							}
						}
					}
				}
			}
		}
	}
}
MOTION
Frames:    7
Frame Time: 0.03333334
-0.638360	-0.127581	 1.267378	-159.822600	 9.517505	 9.565693	 8.446038	-16.271550	 163.420700	-8.902781	-30.677960	-3.559229	-62.235990	 77.465650	 60.008740	-2.385833	 28.452760	 0.000004	 8.808084	-50.961910	 179.696900	-26.492280	-56.771760	-13.139140	 32.280370	 36.877620	-39.126680	 2.384659	 28.388700	-0.000001	 63.544750	-20.876720	-14.621300	 45.508820	 27.552250	 0.259143	-5.345670	-3.602957	-4.810657	-91.776200	 78.527420	-180.000000	 19.665350	 49.180330	-36.791080	-7.152757	-5.162568	-32.998690	 6.519614	-23.304830	-4.652427	-4.131196	 21.524690	 0.986298	-5.167839	 0.733520	 3.519257	-1.378229	 35.397820	-2.634230	-13.960930	 16.424780	-7.958690	-25.486210	 3.593592	 5.403798	 89.782160	 78.203850	 179.999900	 6.183620	 58.129650	-4.709991	-4.423189	-3.263127	 10.408950	 90.185750	-42.840180	-9.902058	 5.715225	 19.176060	-3.692089	 5.027514	 0.245388	-9.378011	-2.350882	 35.473990	 5.254307
-0.631116	-0.121428	 1.268185	-160.039800	 9.312954	 9.361397	 10.130820	-15.479310	 163.295900	-8.546968	-29.549690	-3.263334	-74.972560	 79.792900	 71.843990	-2.385833	 28.452760	 0.000004	 8.763087	-49.817130	-179.884800	-21.366670	-56.432590	-8.750607	 43.880120	 44.580970	-44.959030	 2.384659	 28.388700	-0.000001	 62.584350	-22.858210	-15.660940	 46.490860	 31.766650	-2.078431	-5.066782	-5.577659	-4.162608	-91.776110	 78.527400	 180.000000	 19.570510	 49.413430	-36.586170	-6.436265	-5.604685	-32.915630	 6.975581	-23.236520	-4.867553	-4.131196	 21.524690	 0.986298	-5.167839	 0.733520	 3.519257	-1.378229	 35.397820	-2.634230	-14.023890	 16.201180	-7.712041	-25.384910	 3.530493	 4.957541	 89.782150	 78.203890	 180.000000	 6.310633	 58.117530	-3.948760	-5.838301	-3.120803	 9.254877	 92.092090	-38.967280	-4.922521	 5.715225	 19.176060	-3.692089	 5.027514	 0.245388	-9.378011	-2.350882	 35.473990	 5.254307
-0.620841	-0.112427	 1.267994	-161.743600	 10.281650	 10.070740	 12.384100	-15.839900	 162.436500	-7.446299	-28.489730	-2.626962	-83.541950	 79.599790	 79.133360	-2.385833	 28.452760	 0.000004	 6.761106	-49.873490	 178.599500	-18.146530	-54.969500	-5.943951	 46.432090	 48.462530	-44.258090	 2.384659	 28.388700	-0.000001	 63.864580	-22.907180	-15.934360	 45.941730	 30.732070	 0.407399	-4.626174	-4.693278	-5.249858	-91.776180	 78.527360	-180.000000	 19.588510	 49.403240	-36.866770	-5.531171	-6.073835	-32.467220	 7.451293	-23.251310	-5.107536	-4.131196	 21.524690	 0.986298	-5.167839	 0.733520	 3.519257	-1.378229	 35.397820	-2.634230	-14.004210	 16.609630	-7.702065	-25.189660	 3.226472	 4.719002	 89.782120	 78.203870	 180.000000	 6.424833	 58.593330	-4.486770	-7.398550	-4.080180	 11.142600	 89.251770	-41.251590	-3.635118	 5.715225	 19.176060	-3.692089	 5.027514	 0.245388	-9.378011	-2.350882	 35.473990	 5.254307
-0.606514	-0.099467	 1.268142	-162.288100	 11.387520	 9.187777	 13.854490	-14.688720	 163.015400	-5.662552	-25.677390	-1.609574	-115.139300	 81.421010	 108.268400	-2.385833	 28.452760	 0.000004	 10.721900	-49.132040	-178.438000	-17.198560	-53.764730	-5.087283	 54.994510	 51.192070	-50.162240	 2.384659	 28.388700	-0.000001	 64.465090	-24.100660	-14.112100	 46.167640	 31.897500	-0.003974	-4.153563	-5.202046	-6.017881	-91.776180	 78.527420	-180.000000	 19.719550	 49.540780	-37.231500	-4.768708	-6.448150	-32.112320	 7.867752	-23.349210	-5.332124	-4.131196	 21.524690	 0.986298	-5.167839	 0.733520	 3.519257	-1.378229	 35.397820	-2.634230	-13.774590	 17.114580	-7.906886	-24.957080	 3.262667	 5.535754	 89.782150	 78.203930	 179.999900	 5.620341	 58.535020	-2.858972	-8.812800	-4.304845	 11.066770	 87.965780	-41.043630	-0.818674	 5.715225	 19.176060	-3.692089	 5.027514	 0.245388	-9.378011	-2.350882	 35.473990	 5.254307
-0.590458	-0.085014	 1.268603	-161.299200	 11.881110	 6.866945	 14.674150	-11.557080	 164.676000	-4.253371	-21.024980	-0.826031	-157.612000	 80.986960	 149.222200	-2.385833	 28.452760	 0.000004	 17.474600	-46.721960	-173.085500	-17.070680	-53.104930	-4.941538	 68.147480	 51.949910	-60.647560	 2.384659	 28.388700	-0.000001	 64.360060	-25.193200	-10.595860	 46.871420	 34.167840	-3.230291	-3.655272	-6.814030	-5.762379	-91.776150	 78.527400	 180.000000	 19.769750	 49.844330	-37.218380	-4.205976	-6.759106	-32.056010	 8.208818	-23.504070	-5.521950	-4.131196	 21.524690	 0.986298	-5.167839	 0.733520	 3.519257	-1.378229	 35.397820	-2.634230	-13.350330	 17.181000	-8.275092	-24.800280	 3.749927	 7.119528	 89.782160	 78.203920	 179.999900	 4.506543	 58.010610	 0.455265	-9.659053	-3.351780	 8.538752	 89.464500	-39.155370	 4.646337	 5.715225	 19.176060	-3.692089	 5.027514	 0.245388	-9.378011	-2.350882	 35.473990	 5.254307
-0.573639	-0.070883	 1.267860	-161.618000	 11.150720	 6.781448	 13.679200	-7.126334	 163.891300	-3.332415	-16.739580	-0.397630	-131.555500	 81.477300	 122.093300	-2.385833	 28.452760	 0.000004	 17.116040	-44.119030	-174.057900	-16.285290	-51.547070	-4.221853	 65.336300	 54.710990	-55.936330	 2.384659	 28.388700	-0.000001	 65.385440	-22.234640	-9.286235	 45.349190	 30.951310	-2.742535	-2.823911	-5.614185	-4.911130	-91.776250	 78.527430	-179.999900	 20.157680	 49.224070	-37.831500	-3.650083	-6.860120	-31.281540	 8.454391	-23.756250	-5.680494	-4.131196	 21.524690	 0.986298	-5.167839	 0.733520	 3.519257	-1.378229	 35.397820	-2.634230	-12.901280	 17.046870	-9.062903	-24.768570	 4.133969	 8.593822	 89.782090	 78.203850	 180.000000	 2.409441	 58.479290	 1.148006	-8.963749	-4.965303	 12.874410	 87.885800	-48.401070	 6.871727	 5.715225	 19.176060	-3.692089	 5.027514	 0.245388	-9.378011	-2.350882	 35.473990	 5.254307
-0.557638	-0.055818	 1.267858	-161.687800	 11.421550	 7.652342	 18.344900	-6.223372	 162.415400	-7.117627	-13.280500	-1.189677	-78.375760	 83.626130	 72.187570	-2.385833	 28.452760	 0.000004	 17.799860	-42.607840	-175.337700	-16.354460	-49.830870	-4.173011	 69.915420	 55.623170	-59.352750	 2.384659	 28.388700	-0.000001	 63.963490	-23.415220	-10.801860	 45.836610	 32.078640	-2.884981	-2.423614	-5.798981	-5.390002	-91.776250	 78.527380	-180.000000	 20.794040	 49.267910	-38.997620	-3.090261	-6.587320	-29.222750	 8.483319	-24.105640	-5.774054	-4.131196	 21.524690	 0.986298	-5.167839	 0.733520	 3.519257	-1.378229	 35.397820	-2.634230	-12.684300	 17.238490	-9.401431	-24.707780	 3.783110	 8.963299	 89.782110	 78.203900	 180.000000	 1.889203	 58.374850	 0.025353	-6.200491	-6.227464	 18.268220	 91.421340	-55.388420	 11.613670	 5.715225	 19.176060	-3.692089	 5.027514	 0.245388	-9.378011	-2.350882	 35.473990	 5.254307
